<svg xmlns="http://www.w3.org/2000/svg" x="0px" y="0px"
            width="95" height="95"
            viewBox="10 -10 172 172"
            style=" fill:#000000;"><g fill="none" fill-rule="nonzero" stroke="none" stroke-width="1" stroke-linecap="butt" stroke-linejoin="miter" stroke-miterlimit="10" stroke-dasharray="" stroke-dashoffset="0" font-family="none" font-weight="none" font-size="none" text-anchor="none" style="mix-blend-mode: normal"><path d="M0,172v-172h172v172z" fill="none"></path><g><g><path d="M127.98883,57.3882l-60.17312,98.4868l3.5643,-60.97266h-27.36883l7.34695,-78.77734h60.31422l-17.03539,41.2632z" fill="#3f37c9"></path><path d="M127.98883,54.02883h-28.33062l15.1192,-36.62189c0.42787,-1.03641 0.31046,-2.21797 -0.31301,-3.1499c-0.62347,-0.93194 -1.6708,-1.49138 -2.79206,-1.49141h-60.31422c-1.73445,-0.00004 -3.1838,1.32034 -3.34493,3.04729l-7.34695,78.77734c-0.08781,0.94111 0.22491,1.87567 0.86144,2.5744c0.63653,0.69873 1.53796,1.09699 2.48316,1.09706h23.80755l-3.35635,57.41743c-0.09035,1.53894 0.87831,2.94186 2.34941,3.40267c1.4711,0.46081 3.06704,-0.13877 3.8708,-1.45424l60.17313,-98.4868c0.63375,-1.0369 0.65809,-2.33523 0.06365,-3.39516c-0.59444,-1.05993 -1.71496,-1.71619 -2.9302,-1.71613zM71.95445,142.65955l2.78022,-47.56102c0.05392,-0.92333 -0.27522,-1.82805 -0.90985,-2.50088c-0.63462,-0.67283 -1.51857,-1.05425 -2.44348,-1.05434h-23.68259l6.71875,-72.05859h52.23358l-15.1192,36.62155c-0.42775,1.03643 -0.31022,2.21794 0.31331,3.1498c0.62353,0.93186 1.67087,1.49121 2.7921,1.49117h27.36278z" fill="#083863"></path></g></g></g></svg>